<?xml version="1.0" standalone="no"?><!DOCTYPE svg PUBLIC "-//W3C//DTD SVG 1.1//EN" "http://www.w3.org/Graphics/SVG/1.1/DTD/svg11.dtd"><svg t="1725931809452" class="icon" viewBox="0 0 2616 1024" version="1.1" xmlns="http://www.w3.org/2000/svg" p-id="15013" xmlns:xlink="http://www.w3.org/1999/xlink" width="654" height="256"><path d="M512 0h1592.888889a512 512 0 0 1 0 1024H113.777778a113.777778 113.777778 0 0 1-113.777778-113.777778V512a512 512 0 0 1 512-512z" fill="#D63C28" p-id="15014"></path><path d="M691.086222 682.666667V464.213333h242.346667V400.725333h-242.346667V258.730667h256.682667V195.242667h-331.093333V682.666667h74.410666z m438.954667 0V495.616c0-30.72 8.874667-55.978667 27.306667-75.093333 17.066667-17.749333 36.864-26.624 58.709333-26.624 16.384 0 33.450667 2.048 51.2 7.509333V329.045333c-12.288-6.144-27.989333-8.874667-45.738667-8.874666-21.845333 0-40.96 6.144-57.344 19.797333-13.653333 9.557333-25.258667 23.893333-34.133333 43.008v-53.248h-72.362667V682.666667h72.362667z m385.024 9.557333c47.104 0 86.016-13.653333 116.736-40.277333 24.576-21.845333 40.277333-49.834667 48.469333-82.602667h-72.362666c-9.557333 20.48-19.797333 36.181333-32.085334 45.738667-15.701333 11.605333-36.181333 17.749333-61.44 17.749333-28.672 0-51.2-9.557333-67.584-27.306667-16.384-18.432-25.258667-45.056-27.989333-79.189333h267.605333c-0.682667-62.805333-15.018667-111.957333-42.325333-147.456-30.037333-39.594667-74.410667-58.709333-131.754667-58.709333-51.882667 0-93.525333 17.749333-123.562666 53.930666-31.402667 35.498667-46.421333 79.189333-46.421334 131.754667 0 58.026667 16.384 103.765333 49.152 137.898667 30.037333 32.085333 71.68 48.469333 123.562667 48.469333z m95.573333-220.501333h-190.464c4.096-30.037333 14.336-52.565333 29.354667-68.266667 16.384-16.384 37.546667-23.893333 64.853333-23.893333 57.344 0 89.429333 30.72 96.256 92.16z m340.650667 220.501333c47.104 0 86.016-13.653333 116.736-40.277333 24.576-21.845333 40.277333-49.834667 48.469333-82.602667h-72.362666c-9.557333 20.48-19.797333 36.181333-32.085334 45.738667-15.701333 11.605333-36.181333 17.749333-61.44 17.749333-28.672 0-51.2-9.557333-67.584-27.306667-16.384-18.432-25.258667-45.056-27.989333-79.189333h267.605333c-0.682667-62.805333-15.018667-111.957333-42.325333-147.456-30.037333-39.594667-74.410667-58.709333-131.754667-58.709333-51.882667 0-93.525333 17.749333-123.562666 53.930666-31.402667 35.498667-46.421333 79.189333-46.421334 131.754667 0 58.026667 16.384 103.765333 49.152 137.898667 30.037333 32.085333 71.68 48.469333 123.562667 48.469333z m95.573333-220.501333h-190.464c4.096-30.037333 14.336-52.565333 29.354667-68.266667 16.384-16.384 37.546667-23.893333 64.853333-23.893333 57.344 0 89.429333 30.72 96.256 92.16z" fill="#FFFFFF" p-id="15015"></path></svg>