<?xml version="1.0" standalone="no"?><!DOCTYPE svg PUBLIC "-//W3C//DTD SVG 1.1//EN" "http://www.w3.org/Graphics/SVG/1.1/DTD/svg11.dtd"><svg t="1725519629124" class="icon" viewBox="0 0 1024 1024" version="1.1" xmlns="http://www.w3.org/2000/svg" p-id="2373" xmlns:xlink="http://www.w3.org/1999/xlink" width="256" height="256"><path d="M860 192h-64a4 4 0 0 0-4 4v692H288.9c-30.8 0-56.4-24.4-56.9-55.1a56.1 56.1 0 0 1 48.6-56.4H680a40 40 0 0 0 40-40v-633a40 40 0 0 0-40-40H200a40 40 0 0 0-40 40v729A128 128 0 0 0 288 960h536a40 40 0 0 0 40-40V196a4 4 0 0 0-4-4z m-548 19.5a4 4 0 0 1 4-4h248a4 4 0 0 1 4 4v56a4 4 0 0 1-4 4H316a4 4 0 0 1-4-4z" p-id="2374"></path></svg>