<?xml version="1.0" standalone="no"?><!DOCTYPE svg PUBLIC "-//W3C//DTD SVG 1.1//EN" "http://www.w3.org/Graphics/SVG/1.1/DTD/svg11.dtd"><svg t="1725519621153" class="icon" viewBox="0 0 1024 1024" version="1.1" xmlns="http://www.w3.org/2000/svg" p-id="2205" xmlns:xlink="http://www.w3.org/1999/xlink" width="256" height="256"><path d="M564 207.5H316a4 4 0 0 0-4 4v56a4 4 0 0 0 4 4h248a4 4 0 0 0 4-4v-56a4 4 0 0 0-4-4z m296-15h-64a4 4 0 0 0-4 4V889H288.9c-30.8 0-56.4-24.4-56.9-55.1a56 56 0 0 1 56-56.9h392a40 40 0 0 0 40-40V103.5a40 40 0 0 0-40-40H200a40 40 0 0 0-40 40V833a128 128 0 0 0 128 128h536a40 40 0 0 0 40-40V196.5a4 4 0 0 0-4-4z m-628-57h416v569H232z" p-id="2206"></path></svg>